<mxfile host="app.diagrams.net" agent="Mozilla/5.0 (Windows NT 10.0; Win64; x64) AppleWebKit/537.36 (KHTML, like Gecko) Chrome/131.0.0.0 Safari/537.36" version="26.0.4">
  <diagram name="Página-1" id="nvCLO-GIkPrwbW7r7_kh">
    <mxGraphModel dx="1120" dy="434" grid="1" gridSize="10" guides="1" tooltips="1" connect="1" arrows="1" fold="1" page="1" pageScale="1" pageWidth="827" pageHeight="1169" math="0" shadow="0">
      <root>
        <mxCell id="0" />
        <mxCell id="1" parent="0" />
        <mxCell id="cWUKam0grw8CRjxzX2TN-26" style="edgeStyle=orthogonalEdgeStyle;rounded=0;orthogonalLoop=1;jettySize=auto;html=1;exitX=0.5;exitY=1;exitDx=0;exitDy=0;exitPerimeter=0;" edge="1" parent="1" source="cWUKam0grw8CRjxzX2TN-2" target="cWUKam0grw8CRjxzX2TN-3">
          <mxGeometry relative="1" as="geometry" />
        </mxCell>
        <mxCell id="cWUKam0grw8CRjxzX2TN-2" value="INICÍO" style="strokeWidth=2;html=1;shape=mxgraph.flowchart.start_1;whiteSpace=wrap;fillColor=#CCE5FF;" vertex="1" parent="1">
          <mxGeometry x="313.75" y="40" width="90" height="40" as="geometry" />
        </mxCell>
        <mxCell id="cWUKam0grw8CRjxzX2TN-3" value="Boas Vindas" style="strokeWidth=2;html=1;shape=mxgraph.flowchart.display;whiteSpace=wrap;fillColor=#FFFF99;" vertex="1" parent="1">
          <mxGeometry x="310" y="110" width="97.5" height="50" as="geometry" />
        </mxCell>
        <mxCell id="cWUKam0grw8CRjxzX2TN-13" style="edgeStyle=orthogonalEdgeStyle;rounded=0;orthogonalLoop=1;jettySize=auto;html=1;exitX=1;exitY=0.5;exitDx=0;exitDy=0;entryX=0.5;entryY=0;entryDx=0;entryDy=0;" edge="1" parent="1" source="cWUKam0grw8CRjxzX2TN-4" target="cWUKam0grw8CRjxzX2TN-11">
          <mxGeometry relative="1" as="geometry" />
        </mxCell>
        <mxCell id="cWUKam0grw8CRjxzX2TN-40" style="edgeStyle=orthogonalEdgeStyle;rounded=0;orthogonalLoop=1;jettySize=auto;html=1;exitX=0;exitY=0.5;exitDx=0;exitDy=0;" edge="1" parent="1" source="cWUKam0grw8CRjxzX2TN-4">
          <mxGeometry relative="1" as="geometry">
            <mxPoint x="360" y="690" as="targetPoint" />
          </mxGeometry>
        </mxCell>
        <mxCell id="cWUKam0grw8CRjxzX2TN-4" value="+pepperoneR$2,00" style="rhombus;whiteSpace=wrap;html=1;fillColor=#99FF99;" vertex="1" parent="1">
          <mxGeometry x="540" y="440" width="120" height="100" as="geometry" />
        </mxCell>
        <mxCell id="cWUKam0grw8CRjxzX2TN-28" style="edgeStyle=orthogonalEdgeStyle;rounded=0;orthogonalLoop=1;jettySize=auto;html=1;exitX=0.5;exitY=1;exitDx=0;exitDy=0;" edge="1" parent="1" source="cWUKam0grw8CRjxzX2TN-5" target="cWUKam0grw8CRjxzX2TN-7">
          <mxGeometry relative="1" as="geometry" />
        </mxCell>
        <mxCell id="cWUKam0grw8CRjxzX2TN-5" value="Informe o tamanho" style="html=1;strokeWidth=2;shape=manualInput;whiteSpace=wrap;rounded=1;size=26;arcSize=11;fillColor=#FF99FF;" vertex="1" parent="1">
          <mxGeometry x="293.75" y="190" width="130" height="60" as="geometry" />
        </mxCell>
        <mxCell id="cWUKam0grw8CRjxzX2TN-14" style="edgeStyle=orthogonalEdgeStyle;rounded=0;orthogonalLoop=1;jettySize=auto;html=1;exitX=1;exitY=0.5;exitDx=0;exitDy=0;" edge="1" parent="1" source="cWUKam0grw8CRjxzX2TN-6" target="cWUKam0grw8CRjxzX2TN-12">
          <mxGeometry relative="1" as="geometry" />
        </mxCell>
        <mxCell id="cWUKam0grw8CRjxzX2TN-38" style="edgeStyle=orthogonalEdgeStyle;rounded=0;orthogonalLoop=1;jettySize=auto;html=1;exitX=0;exitY=0.5;exitDx=0;exitDy=0;entryX=0.5;entryY=0;entryDx=0;entryDy=0;" edge="1" parent="1" source="cWUKam0grw8CRjxzX2TN-6" target="cWUKam0grw8CRjxzX2TN-10">
          <mxGeometry relative="1" as="geometry">
            <Array as="points">
              <mxPoint x="10" y="490" />
              <mxPoint x="10" y="650" />
              <mxPoint x="360" y="650" />
            </Array>
          </mxGeometry>
        </mxCell>
        <mxCell id="cWUKam0grw8CRjxzX2TN-6" value="+pepperoneR$3,00" style="rhombus;whiteSpace=wrap;html=1;fillColor=#99FF99;" vertex="1" parent="1">
          <mxGeometry x="60" y="440" width="120" height="100" as="geometry" />
        </mxCell>
        <mxCell id="cWUKam0grw8CRjxzX2TN-8" style="edgeStyle=orthogonalEdgeStyle;rounded=0;orthogonalLoop=1;jettySize=auto;html=1;exitX=1;exitY=0.5;exitDx=0;exitDy=0;entryX=0.5;entryY=0;entryDx=0;entryDy=0;" edge="1" parent="1" source="cWUKam0grw8CRjxzX2TN-7" target="cWUKam0grw8CRjxzX2TN-4">
          <mxGeometry relative="1" as="geometry" />
        </mxCell>
        <mxCell id="cWUKam0grw8CRjxzX2TN-9" style="edgeStyle=orthogonalEdgeStyle;rounded=0;orthogonalLoop=1;jettySize=auto;html=1;exitX=0;exitY=0.5;exitDx=0;exitDy=0;entryX=0.5;entryY=0;entryDx=0;entryDy=0;" edge="1" parent="1" source="cWUKam0grw8CRjxzX2TN-7" target="cWUKam0grw8CRjxzX2TN-6">
          <mxGeometry relative="1" as="geometry" />
        </mxCell>
        <mxCell id="cWUKam0grw8CRjxzX2TN-7" value="tamanho=1" style="rhombus;whiteSpace=wrap;html=1;fillColor=#99FF99;" vertex="1" parent="1">
          <mxGeometry x="298.75" y="310" width="120" height="100" as="geometry" />
        </mxCell>
        <mxCell id="cWUKam0grw8CRjxzX2TN-42" style="edgeStyle=orthogonalEdgeStyle;rounded=0;orthogonalLoop=1;jettySize=auto;html=1;exitX=1;exitY=0.5;exitDx=0;exitDy=0;entryX=1;entryY=0.5;entryDx=0;entryDy=0;" edge="1" parent="1" source="cWUKam0grw8CRjxzX2TN-10" target="cWUKam0grw8CRjxzX2TN-22">
          <mxGeometry relative="1" as="geometry">
            <Array as="points">
              <mxPoint x="480" y="740" />
              <mxPoint x="480" y="855" />
            </Array>
          </mxGeometry>
        </mxCell>
        <mxCell id="cWUKam0grw8CRjxzX2TN-10" value="Queijo extra?" style="rhombus;whiteSpace=wrap;html=1;fillColor=#99FF99;" vertex="1" parent="1">
          <mxGeometry x="300" y="690" width="120" height="100" as="geometry" />
        </mxCell>
        <mxCell id="cWUKam0grw8CRjxzX2TN-41" style="edgeStyle=orthogonalEdgeStyle;rounded=0;orthogonalLoop=1;jettySize=auto;html=1;exitX=0.5;exitY=1;exitDx=0;exitDy=0;" edge="1" parent="1" source="cWUKam0grw8CRjxzX2TN-11">
          <mxGeometry relative="1" as="geometry">
            <mxPoint x="360" y="690" as="targetPoint" />
            <Array as="points">
              <mxPoint x="740" y="640" />
              <mxPoint x="361" y="640" />
            </Array>
          </mxGeometry>
        </mxCell>
        <mxCell id="cWUKam0grw8CRjxzX2TN-11" value="Acrescenta R$2,00 na pizza pequena" style="rounded=1;whiteSpace=wrap;html=1;absoluteArcSize=1;arcSize=14;strokeWidth=2;fillColor=#99FFFF;" vertex="1" parent="1">
          <mxGeometry x="680" y="560" width="120" height="50" as="geometry" />
        </mxCell>
        <mxCell id="cWUKam0grw8CRjxzX2TN-39" style="edgeStyle=orthogonalEdgeStyle;rounded=0;orthogonalLoop=1;jettySize=auto;html=1;exitX=1;exitY=0.5;exitDx=0;exitDy=0;" edge="1" parent="1" source="cWUKam0grw8CRjxzX2TN-12">
          <mxGeometry relative="1" as="geometry">
            <mxPoint x="360" y="690" as="targetPoint" />
          </mxGeometry>
        </mxCell>
        <mxCell id="cWUKam0grw8CRjxzX2TN-12" value="Acrescenta R$3,00 na pizza média ou grande" style="rounded=1;whiteSpace=wrap;html=1;absoluteArcSize=1;arcSize=14;strokeWidth=2;fillColor=#99FFFF;" vertex="1" parent="1">
          <mxGeometry x="180" y="560" width="120" height="50" as="geometry" />
        </mxCell>
        <mxCell id="cWUKam0grw8CRjxzX2TN-22" value="Acrescenta R$1,00 no valor total" style="rounded=1;whiteSpace=wrap;html=1;absoluteArcSize=1;arcSize=14;strokeWidth=2;fillColor=#99FFFF;" vertex="1" parent="1">
          <mxGeometry x="300" y="830" width="120" height="50" as="geometry" />
        </mxCell>
        <mxCell id="cWUKam0grw8CRjxzX2TN-32" style="edgeStyle=orthogonalEdgeStyle;rounded=0;orthogonalLoop=1;jettySize=auto;html=1;exitX=0.5;exitY=1;exitDx=0;exitDy=0;exitPerimeter=0;" edge="1" parent="1" source="cWUKam0grw8CRjxzX2TN-24">
          <mxGeometry relative="1" as="geometry">
            <mxPoint x="360" y="1020" as="targetPoint" />
          </mxGeometry>
        </mxCell>
        <mxCell id="cWUKam0grw8CRjxzX2TN-24" value="valor total" style="strokeWidth=2;html=1;shape=mxgraph.flowchart.display;whiteSpace=wrap;fillColor=#FFFF99;" vertex="1" parent="1">
          <mxGeometry x="311.25" y="930" width="97.5" height="50" as="geometry" />
        </mxCell>
        <mxCell id="cWUKam0grw8CRjxzX2TN-25" value="FIM" style="strokeWidth=2;html=1;shape=mxgraph.flowchart.start_1;whiteSpace=wrap;fillColor=#CCE5FF;" vertex="1" parent="1">
          <mxGeometry x="317.5" y="1020" width="90" height="40" as="geometry" />
        </mxCell>
        <mxCell id="cWUKam0grw8CRjxzX2TN-27" style="edgeStyle=orthogonalEdgeStyle;rounded=0;orthogonalLoop=1;jettySize=auto;html=1;exitX=0.5;exitY=1;exitDx=0;exitDy=0;exitPerimeter=0;entryX=0.502;entryY=0.2;entryDx=0;entryDy=0;entryPerimeter=0;" edge="1" parent="1" source="cWUKam0grw8CRjxzX2TN-3" target="cWUKam0grw8CRjxzX2TN-5">
          <mxGeometry relative="1" as="geometry" />
        </mxCell>
        <mxCell id="cWUKam0grw8CRjxzX2TN-30" style="edgeStyle=orthogonalEdgeStyle;rounded=0;orthogonalLoop=1;jettySize=auto;html=1;exitX=0.5;exitY=1;exitDx=0;exitDy=0;entryX=0.5;entryY=0;entryDx=0;entryDy=0;entryPerimeter=0;" edge="1" parent="1" source="cWUKam0grw8CRjxzX2TN-22" target="cWUKam0grw8CRjxzX2TN-24">
          <mxGeometry relative="1" as="geometry" />
        </mxCell>
        <mxCell id="cWUKam0grw8CRjxzX2TN-33" value="SIM" style="text;html=1;align=center;verticalAlign=middle;whiteSpace=wrap;rounded=0;" vertex="1" parent="1">
          <mxGeometry x="480" y="330" width="60" height="30" as="geometry" />
        </mxCell>
        <mxCell id="cWUKam0grw8CRjxzX2TN-34" value="SIM" style="text;html=1;align=center;verticalAlign=middle;whiteSpace=wrap;rounded=0;" vertex="1" parent="1">
          <mxGeometry x="670" y="460" width="60" height="30" as="geometry" />
        </mxCell>
        <mxCell id="cWUKam0grw8CRjxzX2TN-35" value="SIM" style="text;html=1;align=center;verticalAlign=middle;whiteSpace=wrap;rounded=0;" vertex="1" parent="1">
          <mxGeometry x="180" y="460" width="60" height="30" as="geometry" />
        </mxCell>
        <mxCell id="cWUKam0grw8CRjxzX2TN-44" style="edgeStyle=orthogonalEdgeStyle;rounded=0;orthogonalLoop=1;jettySize=auto;html=1;exitX=0;exitY=0.5;exitDx=0;exitDy=0;entryX=0;entryY=0.5;entryDx=0;entryDy=0;entryPerimeter=0;" edge="1" parent="1" source="cWUKam0grw8CRjxzX2TN-10" target="cWUKam0grw8CRjxzX2TN-24">
          <mxGeometry relative="1" as="geometry">
            <Array as="points">
              <mxPoint x="240" y="740" />
              <mxPoint x="240" y="955" />
            </Array>
          </mxGeometry>
        </mxCell>
        <mxCell id="cWUKam0grw8CRjxzX2TN-45" value="SIM" style="text;html=1;align=center;verticalAlign=middle;whiteSpace=wrap;rounded=0;" vertex="1" parent="1">
          <mxGeometry x="418.75" y="710" width="60" height="30" as="geometry" />
        </mxCell>
        <mxCell id="cWUKam0grw8CRjxzX2TN-46" value="NÃO" style="text;html=1;align=center;verticalAlign=middle;whiteSpace=wrap;rounded=0;" vertex="1" parent="1">
          <mxGeometry x="160" y="330" width="60" height="30" as="geometry" />
        </mxCell>
        <mxCell id="cWUKam0grw8CRjxzX2TN-47" value="NÃO" style="text;html=1;align=center;verticalAlign=middle;whiteSpace=wrap;rounded=0;" vertex="1" parent="1">
          <mxGeometry y="460" width="60" height="30" as="geometry" />
        </mxCell>
        <mxCell id="cWUKam0grw8CRjxzX2TN-48" value="NÃO" style="text;html=1;align=center;verticalAlign=middle;whiteSpace=wrap;rounded=0;" vertex="1" parent="1">
          <mxGeometry x="403.75" y="460" width="60" height="30" as="geometry" />
        </mxCell>
        <mxCell id="cWUKam0grw8CRjxzX2TN-49" value="NÃO" style="text;html=1;align=center;verticalAlign=middle;whiteSpace=wrap;rounded=0;" vertex="1" parent="1">
          <mxGeometry x="238.75" y="710" width="60" height="30" as="geometry" />
        </mxCell>
      </root>
    </mxGraphModel>
  </diagram>
</mxfile>
